<?xml version="1.0" encoding="UTF-8"?>
<!DOCTYPE svg PUBLIC "-//W3C//DTD SVG 1.1//EN" "http://www.w3.org/Graphics/SVG/1.1/DTD/svg11.dtd">
<!-- Creator: CorelDRAW X7 -->
<svg xmlns="http://www.w3.org/2000/svg" xml:space="preserve" width="0.395787in" height="0.28139in" version="1.1" style="shape-rendering:geometricPrecision; text-rendering:geometricPrecision; image-rendering:optimizeQuality; fill-rule:evenodd; clip-rule:evenodd"
viewBox="0 0 43 31"
 xmlns:xlink="http://www.w3.org/1999/xlink">
 <defs>
  <style type="text/css">
   <![CDATA[
    .fil2 {fill:#3C3B6E;fill-rule:nonzero}
    .fil0 {fill:#B22334;fill-rule:nonzero}
    .fil1 {fill:#EEEEEE;fill-rule:nonzero}
    .fil3 {fill:white;fill-rule:nonzero}
   ]]>
  </style>
 </defs>
 <g id="Layer_x0020_1">
  <metadata id="CorelCorpID_0Corel-Layer"/>
  <g id="_2465927353536">
   <path class="fil0" d="M43 2c-1,-1 -3,-2 -5,-2l-16 0 0 2 21 0zm-43 22l43 0 0 2 -43 0 0 -2zm22 -10l21 0 0 3 -21 0 0 -3zm0 -5l21 0 0 3 -21 0 0 -3zm-22 10l43 0 0 2 -43 0 0 -2zm5 12l33 0c2,0 4,-1 5,-3l-42 0c0,2 2,3 4,3zm17 -26l21 0 0 2 -21 0 0 -2z"/>
   <path class="fil1" d="M0 27c0,0 0,0 0,0 0,0 0,0 0,0 0,1 0,1 1,1l0 0 42 0 0 0c0,0 0,0 0,-1 0,0 0,0 0,0 0,0 0,0 0,0 0,0 0,-1 0,-1l-43 0c0,0 0,1 0,1zm0 -6l43 0 0 3 -43 0 0 -3zm0 -4l0 2 43 0 0 -2 -21 0 -22 0zm22 -5l21 0 0 2 -21 0 0 -2zm0 -5l21 0 0 2 -21 0 0 -2zm-22 -2c0,-1 0,-1 0,-1 0,0 0,0 0,1zm1 -3l0 0 0 0zm-1 2c0,-1 0,-1 0,-1 0,0 0,0 0,1l0 0zm22 1l21 0c0,-1 0,-1 0,-1 0,0 0,0 0,0 0,-1 0,-1 0,-1 0,0 0,0 0,-1 0,0 0,0 0,0l-21 0 0 3z"/>
   <path class="fil2" d="M22 0l-17 0c-3,0 -5,2 -5,5l0 12 22 0 0 -17z"/>
   <path class="fil3" d="M2 3l1 1 0 1 1 -1 0 1 0 -1 1 -1 -1 0 0 -1 -1 1 -1 0zm3 3l1 0 -1 1 1 -1 1 1 -1 -1 1 0 -1 0 0 -1 0 1 -1 0zm5 0l0 0 0 1 1 -1 1 1 -1 -1 1 0 -1 0 0 -1 0 1 -1 0zm4 0l1 0 0 1 1 -1 0 1 0 -1 1 0 -1 0 0 -1 -1 1 -1 0zm-9 4l1 1 -1 1 1 -1 1 1 -1 -1 1 -1 -1 0 0 -1 0 1 -1 0zm5 0l0 1 0 1 1 -1 1 1 -1 -1 1 -1 -1 0 0 -1 0 1 -1 0zm4 0l1 1 0 1 1 -1 0 1 0 -1 1 -1 -1 0 0 -1 -1 1 -1 0zm-7 -7l1 1 0 1 0 -1 1 1 0 -1 1 -1 -1 0 -1 -1 0 1 -1 0zm5 0l1 1 -1 1 1 -1 1 1 0 -1 0 -1 -1 0 0 -1 0 1 -1 0zm5 0l1 1 -1 1 1 -1 1 1 -1 -1 1 -1 -1 0 0 -1 0 1 -1 0zm-15 5l1 0 0 1 1 0 0 0 0 -1 1 0 -1 0 0 -1 -1 1 -1 0zm6 1l0 0 1 0 0 -1 1 0 -1 0 -1 -1 0 1 -1 0 1 0 0 1zm4 -1l1 0 -1 1 1 0 1 0 0 -1 0 0 -1 0 0 -1 0 1 -1 0zm5 0l1 0 -1 1 1 0 1 0 -1 -1 1 0 -1 0 0 -1 0 1 -1 0zm-15 5l1 0 0 1 1 0 0 0 0 -1 1 0 -1 0 0 -1 -1 1 -1 0zm6 1l0 0 1 0 0 -1 1 0 -1 0 -1 -1 0 1 -1 0 1 0 0 1zm4 -1l1 0 -1 1 1 0 1 0 0 -1 0 0 -1 0 0 -1 0 1 -1 0zm5 0l1 0 -1 1 1 0 1 0 -1 -1 1 0 -1 0 0 -1 0 1 -1 0z"/>
  </g>
 </g>
</svg>
