<?xml version="1.0" encoding="UTF-8"?>
<!DOCTYPE svg PUBLIC "-//W3C//DTD SVG 1.1//EN" "http://www.w3.org/Graphics/SVG/1.1/DTD/svg11.dtd">
<!-- Creator: CorelDRAW X7 -->
<svg xmlns="http://www.w3.org/2000/svg" xml:space="preserve" width="2.81333in" height="0.202122in" version="1.1" style="shape-rendering:geometricPrecision; text-rendering:geometricPrecision; image-rendering:optimizeQuality; fill-rule:evenodd; clip-rule:evenodd"
viewBox="0 0 3435 247"
 xmlns:xlink="http://www.w3.org/1999/xlink">
 <defs>
  <style type="text/css">
   <![CDATA[
    .fil0 {fill:#606062;fill-rule:nonzero}
    .fil1 {fill:#373435;fill-rule:nonzero}
   ]]>
  </style>
 </defs>
 <g id="Layer_x0020_1">
  <metadata id="CorelCorpID_0Corel-Layer"/>
  <g id="_2466254250992">
   <g>
    <path class="fil0" d="M72 7l-69 0 0 233 69 0c67,0 115,-50 115,-117 0,-66 -48,-116 -115,-116zm0 215l-51 0 0 -197 51 0c57,0 97,42 97,98 0,57 -40,99 -97,99zm209 -215l0 233 18 0 0 -233 -18 0zm278 233l19 0 -87 -233 -19 0 -87 233 19 0 25 -66 106 0 24 66zm-124 -84l47 -124 46 124 -93 0zm445 -149l-99 145 -99 -145 -17 0 0 233 17 0 0 -200 95 140 8 0 95 -140 0 200 17 0 0 -233 -17 0zm228 -4c-66,0 -117,54 -117,120 0,67 51,121 117,121 66,0 118,-54 118,-121 0,-66 -52,-120 -118,-120zm0 223c-56,0 -100,-46 -100,-103 0,-56 44,-102 100,-102 57,0 100,46 100,102 0,57 -43,103 -100,103zm370 -219l0 202 -141 -202 -18 0 0 233 18 0 0 -203 141 203 18 0 0 -233 -18 0zm191 0l-69 0 0 233 69 0c67,0 115,-50 115,-117 0,-66 -48,-116 -115,-116zm0 215l-52 0 0 -197 52 0c57,0 97,42 97,98 0,57 -40,99 -97,99z"/>
    <path class="fil0" d="M72 10l-66 0 0 227 66 0c33,0 61,-12 80,-32 20,-21 32,-49 32,-82 0,-32 -12,-61 -32,-81 -19,-20 -47,-32 -80,-32zm-69 -6l69 0c34,0 64,13 84,34 21,21 34,51 34,85 0,34 -13,64 -34,86 -20,21 -50,33 -84,33l-69 0 -3 0 0 -2 0 -233 0 -3 3 0zm69 221l-51 0 -3 0 0 -3 0 -197 0 -3 3 0 51 0c29,0 54,11 72,29 18,18 28,43 28,72 0,30 -10,55 -28,73 -18,18 -43,29 -72,29zm-49 -6l49 0c28,0 51,-10 68,-27 17,-17 27,-41 27,-69 0,-27 -10,-51 -27,-68 -17,-17 -40,-27 -68,-27l-49 0 0 191zm260 -209l0 227 13 0 0 -227 -13 0zm-5 230l0 -233 0 -3 3 0 18 0 2 0 0 3 0 233 0 2 -2 0 -18 0 -3 0 0 -2zm283 -3l13 0 -85 -227 -15 0 -84 227 12 0 24 -64 1 -1 2 0 106 0 2 0 0 1 24 64zm17 5l-19 0 -2 0 -1 -1 -23 -64 -102 0 -24 64 -1 1 -2 0 -19 0 -4 0 2 -3 86 -233 1 -2 2 0 19 0 2 0 1 2 87 233 1 3 -4 0zm-145 -87l46 -124 6 0 46 124 1 4 -4 0 -93 0 -4 0 2 -4zm49 -114l-43 113 85 0 -42 -113zm399 -31l-97 144 -3 4 -2 -4 -98 -144 -13 0 0 227 11 0 0 -197 6 -1 93 139 6 0 93 -139 5 1 0 197 12 0 0 -227 -13 0zm-100 137l96 -142 1 -1 2 0 17 0 3 0 0 3 0 233 0 2 -3 0 -17 0 -3 0 0 -2 0 -190 -89 132 -1 1 -2 0 -8 0 -2 0 -1 -1 -89 -132 0 190 0 2 -3 0 -17 0 -3 0 0 -2 0 -233 0 -3 3 0 17 0 2 0 1 1 96 142zm327 -141c-32,0 -61,13 -81,34 -21,21 -33,51 -33,83 0,33 12,63 33,84 20,21 49,34 81,34 32,0 61,-13 81,-34 21,-21 34,-51 34,-84 0,-32 -13,-62 -34,-83l0 0c-20,-21 -49,-34 -81,-34zm-85 30c21,-22 51,-36 85,-36 34,0 64,14 85,36l0 0c22,22 36,53 36,87 0,34 -14,66 -36,88 -21,22 -51,36 -85,36 -34,0 -64,-14 -85,-36 -22,-22 -35,-54 -35,-88 0,-34 13,-65 35,-87zm85 193c-29,0 -54,-12 -73,-31 -18,-19 -30,-45 -30,-75 0,-29 12,-56 30,-75 19,-19 44,-30 73,-30 29,0 55,11 73,30 19,19 30,46 30,75 0,30 -11,56 -30,75 -18,19 -44,31 -73,31zm-69 -35c18,18 42,29 69,29 27,0 52,-11 69,-29 18,-18 28,-43 28,-71 0,-27 -11,-53 -28,-71 -17,-18 -42,-29 -69,-29 -27,0 -51,11 -69,29 -17,18 -28,44 -28,71 0,28 11,53 28,71zm442 -184l0 199 -5 2 -141 -201 -13 0 0 227 12 0 0 -200 5 -2 141 202 13 0 0 -227 -12 0zm-5 190l0 -193 0 -3 2 0 18 0 3 0 0 3 0 233 0 2 -3 0 -18 0 -1 0 -1 -1 -136 -195 0 194 0 2 -3 0 -18 0 -3 0 0 -2 0 -233 0 -3 3 0 18 0 1 0 1 1 137 195zm193 -190l-67 0 0 227 67 0c32,0 60,-12 80,-32 20,-21 32,-49 32,-82 0,-32 -12,-61 -32,-81 -20,-20 -48,-32 -80,-32zm-69 -6l69 0c34,0 63,13 84,34 21,21 34,51 34,85 0,34 -13,64 -34,86 -21,21 -50,33 -84,33l-69 0 -3 0 0 -2 0 -233 0 -3 3 0zm69 221l-52 0 -3 0 0 -3 0 -197 0 -3 3 0 52 0c29,0 54,11 72,29 18,18 28,43 28,72 0,30 -10,55 -28,73 -18,18 -43,29 -72,29zm-49 -6l49 0c28,0 51,-10 68,-27 16,-17 26,-41 26,-69 0,-27 -10,-51 -26,-68 -17,-17 -40,-27 -68,-27l-49 0 0 191z"/>
   </g>
   <g>
    <path class="fil1" d="M2150 234l7 0 -83 -221 -11 0 -82 221 6 0 23 -62c1,-2 3,-3 6,-3l0 0 106 0c2,0 4,2 5,4l23 61zm15 11l-19 0 0 0c-2,0 -5,-1 -5,-3l-23 -62 -99 0 -22 61c-1,2 -3,4 -6,4l-19 0 0 0c0,0 -1,0 -2,0 -3,-1 -4,-4 -3,-7l87 -233c0,-2 2,-4 5,-4l19 0 0 0c2,0 5,2 5,4l87 232c0,1 1,2 1,3 0,3 -3,5 -6,5zm-148 -91l46 -124c1,-2 5,-4 8,-3 1,1 3,2 3,3l0 0 46 124c1,3 0,7 -3,8 -1,0 -1,0 -2,0l0 0 -93 0c-3,0 -6,-2 -6,-6 0,0 1,-1 1,-2zm52 -105l-39 102 77 0 -38 -102zm293 -36l-133 0 0 6 58 0c3,0 5,3 5,6l0 0 0 209 6 0 0 -209c0,-3 3,-6 6,-6l0 0 58 0 0 -6zm-139 -12l145 0 0 0c3,0 6,3 6,6l0 18 0 0c0,3 -3,6 -6,6l-58 0 0 208 0 1c0,3 -3,5 -6,5l-17 0 0 0c-4,0 -6,-2 -6,-5l0 -209 -58 0 0 0c-3,0 -6,-3 -6,-6l0 -18 0 0c0,-3 3,-6 6,-6zm255 221l0 0 0 -94c0,-3 3,-6 6,-6l0 0 94 0 0 -6 -94 0c-3,0 -6,-3 -6,-6l0 0 0 -85c0,-3 3,-6 6,-6l0 0 102 0 0 -6 -114 0 0 221 117 0 0 -6 -105 0c-3,0 -6,-3 -6,-6zm12 -88l0 82 104 0 1 0c3,0 5,3 5,6l0 17 0 1c0,3 -2,5 -5,5l-129 0 0 0c-3,0 -6,-2 -6,-5l0 -233 0 0c0,-3 3,-6 6,-6l125 0 1 0c3,0 5,3 5,6l0 18 0 0c0,3 -2,6 -5,6l-102 0 0 74 94 0 0 0c3,0 6,2 6,5l0 18 0 0c0,3 -3,6 -6,6l-94 0zm215 88l0 0 0 -209 -7 0 0 221 115 0 0 -6 -102 0c-3,0 -6,-3 -6,-6zm11 -215l0 209 103 0 0 0c3,0 5,3 5,6l0 17 0 1c0,3 -2,5 -5,5l-126 0 0 0c-3,0 -6,-2 -6,-5l0 -233 0 0c0,-3 3,-6 6,-6l18 0 0 0c3,0 5,3 5,6zm207 6l0 221 6 0 0 -221 -6 0zm-12 227l0 -233 0 0c0,-3 3,-6 6,-6l18 0 0 0c3,0 6,3 6,6l0 232 0 1c0,3 -3,5 -6,5l-18 0 0 0c-3,0 -6,-2 -6,-5zm144 -18l0 0 0 -94c0,-3 2,-6 6,-6l0 0 94 0 0 -6 -94 0c-4,0 -6,-3 -6,-6l0 0 0 -85c0,-3 2,-6 6,-6l0 0 102 0 0 -6 -114 0 0 221 117 0 0 -6 -105 0c-4,0 -6,-3 -6,-6zm11 -88l0 82 105 0 0 0c3,0 6,3 6,6l0 17 0 1c0,3 -3,5 -6,5l-128 0 0 0c-3,0 -6,-2 -6,-5l0 -233 0 0c0,-3 3,-6 6,-6l125 0 0 0c3,0 6,3 6,6l0 18 0 0c0,3 -3,6 -6,6l-102 0 0 74 95 0 0 0c3,0 5,2 5,5l0 18 0 0c0,3 -2,6 -5,6l-95 0zm353 100l-57 -93c-2,-2 -1,-6 2,-8 0,0 1,0 1,0l0 0c15,-4 26,-11 34,-21 7,-10 11,-22 11,-37 0,-20 -7,-35 -19,-46 -13,-11 -33,-16 -57,-16l-59 0 0 221 6 0 0 -92c0,-3 3,-6 6,-6l0 0 47 0c3,0 5,0 7,0 2,0 4,0 7,0 2,0 4,1 5,3l59 95 7 0zm-44 -93l59 95c1,1 1,2 1,4 0,3 -2,5 -6,5l-20 0 0 0c-2,0 -4,-1 -5,-2l-59 -96 -3 1c-3,0 -6,0 -8,0l-41 0 0 91 0 1c0,3 -3,5 -6,5l-17 0 -1 0c-3,0 -5,-2 -5,-5l0 -233 0 0c0,-3 2,-6 5,-6l65 0c27,0 49,7 64,19 15,13 23,32 23,55 0,17 -4,32 -13,44 -8,10 -19,17 -33,22zm-94 -16l0 -1 0 -99c0,-3 3,-6 6,-6l0 0 47 0c45,0 70,19 70,56 0,18 -7,32 -19,41 -12,10 -29,14 -51,14l-47 0c-3,0 -6,-2 -6,-5zm12 -94l0 88 41 0c20,0 34,-4 44,-12 10,-7 14,-18 14,-32 0,-30 -20,-44 -58,-44l-41 0z"/>
    <path class="fil1" d="M2146 240l19 0 -87 -233 -19 0 -87 233 19 0 25 -66 106 0 24 66zm-124 -84l47 -124 46 124 -93 0zm346 -149l-145 0 0 18 64 0 0 215 17 0 0 -215 64 0 0 -18zm116 215l0 -94 100 0 0 -18 -100 0 0 -85 108 0 0 -18 -126 0 0 233 129 0 0 -18 -111 0zm227 0l0 -215 -18 0 0 233 126 0 0 -18 -108 0zm206 -215l0 233 18 0 0 -233 -18 0zm144 215l0 -94 100 0 0 -18 -100 0 0 -85 107 0 0 -18 -125 0 0 233 128 0 0 -18 -110 0zm368 18l-62 -102c31,-8 49,-31 49,-63 0,-43 -31,-68 -82,-68l-65 0 0 233 18 0 0 -98 47 0c5,0 10,0 14,0l61 98 20 0zm-142 -115l0 -100 47 0c41,0 64,16 64,50 0,33 -23,50 -64,50l-47 0z"/>
   </g>
  </g>
 </g>
</svg>
